<?xml version="1.0"?>
<!DOCTYPE svg PUBLIC "-//W3C//DTD SVG 1.1//EN" "http://www.w3.org/Graphics/SVG/1.1/DTD/svg11.dtd">
<svg width="40.8mm" height="20.8mm" viewBox="0 0 40.8 20.8" xmlns="http://www.w3.org/2000/svg" version="1.1">
<g id="Sketch" transform="translate(20.400000,10.400000) scale(1,-1)">
<circle cx="-10.0" cy="0.0" r="2.5" stroke="#000000" stroke-width="0.35 px" style="stroke-width:0.35;stroke-miterlimit:4;stroke-dasharray:none;fill:none"/>
<circle cx="10.0" cy="0.0" r="2.5" stroke="#000000" stroke-width="0.35 px" style="stroke-width:0.35;stroke-miterlimit:4;stroke-dasharray:none;fill:none"/>
<path id="Sketch_w0002"  d="M -5.200000000000002 -9.999999999999998 L 5.200000000000001 -9.999999999999998 L 7.000000000000001 -8.2 L 4.900000000000001 -8.2 L 4.900000000000001 -6.099999999999999 L 7.000000000000002 -4.0 L 13.000000000000002 -4.0 L 15.100000000000001 -6.100000000000001 L 15.100000000000001 -8.200000000000001 L 13.0 -8.200000000000001 L 14.8 -10.0 L 20.0 -10.0 L 20.0 -4.800000000000002 L 18.2 -3.000000000000001 L 18.2 -5.100000000000001 L 16.1 -5.100000000000001 L 14.0 -3.0 L 14.0 3.0 L 16.1 5.099999999999999 L 18.200000000000003 5.099999999999999 L 18.200000000000003 2.999999999999999 L 20.0 4.799999999999998 L 20.0 9.999999999999996 L 14.800000000000002 9.999999999999996 L 13.000000000000002 8.199999999999998 L 15.100000000000001 8.199999999999998 L 15.100000000000001 6.099999999999997 L 13.000000000000002 3.999999999999998 L 7.000000000000001 3.999999999999998 L 4.900000000000002 6.1 L 4.900000000000002 8.2 L 7.000000000000003 8.2 L 5.200000000000002 10.0 L -5.2 10.0 L -7.0 8.2 L -4.9 8.2 L -4.9 6.1 L -7.000000000000001 4.0 L -13.0 4.0 L -15.100000000000001 6.1 L -15.100000000000001 8.2 L -13.000000000000002 8.2 L -14.8 10.0 L -20.0 10.0 L -20.0 4.800000000000001 L -18.2 3.0 L -18.2 5.100000000000001 L -16.1 5.100000000000001 L -14.0 3.000000000000001 L -14.0 -2.999999999999999 L -16.1 -5.099999999999999 L -18.2 -5.099999999999999 L -18.2 -2.999999999999999 L -20.0 -4.799999999999999 L -20.0 -9.999999999999998 L -14.8 -9.999999999999998 L -13.000000000000002 -8.199999999999998 L -15.100000000000001 -8.199999999999998 L -15.100000000000001 -6.099999999999998 L -13.0 -3.999999999999999 L -7.000000000000001 -3.999999999999999 L -4.900000000000001 -6.099999999999999 L -4.900000000000001 -8.2 L -7.000000000000002 -8.2 L -5.200000000000002 -9.999999999999998 " stroke="#000000" stroke-width="0.35 px" style="stroke-width:0.35;stroke-miterlimit:4;stroke-dasharray:none;fill:none;fill-rule: evenodd "/>
<path id="Sketch_w0003"  d="M -2.9 8.2 L 2.900000000000003 8.2 L 2.900000000000003 6.1 L 6.000000000000001 2.999999999999998 L 6.000000000000001 -3.000000000000002 L 2.900000000000001 -6.1 L 2.900000000000001 -8.2 L -2.900000000000001 -8.2 L -2.900000000000001 -6.099999999999999 L -6.0 -2.999999999999998 L -6.0 3.000000000000002 L -2.9 6.1 L -2.9 8.2 " stroke="#000000" stroke-width="0.35 px" style="stroke-width:0.35;stroke-miterlimit:4;stroke-dasharray:none;fill:none;fill-rule: evenodd "/>
<title>b'Sketch'</title>
</g>
</svg>