0
SECTION
2
HEADER
9
$INSUNITS
70
4
9
$ACADVER
1
AC1014
9
$HANDSEED
5
FFFF
0
ENDSEC
0
SECTION
2
TABLES
0
TABLE
2
VPORT
5
8
100
AcDbSymbolTable
0
ENDTAB
0
TABLE
2
LTYPE
5
5
100
AcDbSymbolTable
0
LTYPE
5
14
100
AcDbSymbolTableRecord
100
AcDbLinetypeTableRecord
2
BYBLOCK
70
0
0
LTYPE
5
15
100
AcDbSymbolTableRecord
100
AcDbLinetypeTableRecord
2
BYLAYER
70
0
0
ENDTAB
0
TABLE
2
LAYER
5
2
100
AcDbSymbolTable
70
2
0
LAYER
5
50
100
AcDbSymbolTableRecord
100
AcDbLayerTableRecord
2
0
70
0
6
CONTINUOUS
0
ENDTAB
0
TABLE
2
STYLE
5
3
100
AcDbSymbolTable
70
1
0
STYLE
5
11
100
AcDbSymbolTableRecord
100
AcDbTextStyleTableRecord
2
STANDARD
70
0
0
ENDTAB
0
TABLE
2
VIEW
5
6
100
AcDbSymbolTable
70
0
0
ENDTAB
0
TABLE
2
UCS
5
7
100
AcDbSymbolTable
70
0
0
ENDTAB
0
TABLE
2
APPID
5
9
100
AcDbSymbolTable
70
2
0
APPID
5
12
100
AcDbSymbolTableRecord
100
AcDbRegAppTableRecord
2
ACAD
70
0
0
ENDTAB
0
TABLE
2
DIMSTYLE
5
A
100
AcDbSymbolTable
70
1
0
ENDTAB
0
TABLE
2
BLOCK_RECORD
5
1
100
AcDbSymbolTable
70
1
0
BLOCK_RECORD
5
1F
100
AcDbSymbolTableRecord
100
AcDbBlockTableRecord
2
*MODEL_SPACE
0
BLOCK_RECORD
5
1B
100
AcDbSymbolTableRecord
100
AcDbBlockTableRecord
2
*PAPER_SPACE
0
ENDTAB
0
ENDSEC
0
SECTION
2
BLOCKS
0
BLOCK
5
20
100
AcDbEntity
100
AcDbBlockBegin
2
*MODEL_SPACE
0
ENDBLK
5
21
100
AcDbEntity
100
AcDbBlockEnd
0
BLOCK
5
1C
100
AcDbEntity
100
AcDbBlockBegin
2
*PAPER_SPACE
0
ENDBLK
5
1D
100
AcDbEntity
100
AcDbBlockEnd
0
ENDSEC
0
SECTION
2
ENTITIES
0
CIRCLE
5
100
100
AcDbEntity
8
0
100
AcDbCircle
10
0
20
0
30
0
40
3.0000000000000004
210
0
220
0
230
1
0
CIRCLE
5
101
100
AcDbEntity
8
0
100
AcDbCircle
10
0
20
70
30
0
40
3.0000000000000004
210
0
220
0
230
1
0
CIRCLE
5
102
100
AcDbEntity
8
0
100
AcDbCircle
10
60
20
35
30
0
40
3.0000000000000004
210
0
220
0
230
1
0
LINE
5
103
100
AcDbEntity
8
0
100
AcDbLine
10
-5.8803320966593544
20
-10
30
0
11
10
21
-10
31
0
0
LINE
5
104
100
AcDbEntity
8
0
100
AcDbLine
10
10
20
-10
30
0
11
65.038710255240872
21
22.105914315557168
31
0
0
LINE
5
105
100
AcDbEntity
8
0
100
AcDbLine
10
70.000000000000014
20
30.743703324541496
30
0
11
70.000000000000057
21
80
31
0
0
LINE
5
106
100
AcDbEntity
8
0
100
AcDbLine
10
70.000000000000057
20
80
30
0
11
80.000000000000028
21
79.999999999999986
31
0
0
LINE
5
107
100
AcDbEntity
8
0
100
AcDbLine
10
90.000000000000085
20
89.999999999999972
30
0
11
90.000000000000128
21
128
31
0
0
LINE
5
108
100
AcDbEntity
8
0
100
AcDbLine
10
80.000000000000142
20
138
30
0
11
43.19699741524029
21
138.00000000000006
31
0
0
LINE
5
109
100
AcDbEntity
8
0
100
AcDbLine
10
12.500093963278029
20
80
30
0
11
-5
21
80
31
0
0
LINE
5
110
100
AcDbEntity
8
0
100
AcDbLine
10
-10.000000000000004
20
75
30
0
11
-10.000000000000002
21
63.799999999999997
31
0
0
LINE
5
111
100
AcDbEntity
8
0
100
AcDbLine
10
-6.2000000000000011
20
60
30
0
11
14.000000000000005
21
60
31
0
0
LINE
5
112
100
AcDbEntity
8
0
100
AcDbLine
10
14.000000000000005
20
60
30
0
11
14.000000000000004
21
9.9999999999999982
31
0
0
LINE
5
113
100
AcDbEntity
8
0
100
AcDbLine
10
14.000000000000004
20
9.9999999999999982
30
0
11
-6.2000000000000011
21
10
31
0
0
LINE
5
114
100
AcDbEntity
8
0
100
AcDbLine
10
-10
20
6.2000000000000011
30
0
11
-10
21
-6.1999999999999993
31
0
0
LINE
5
115
100
AcDbEntity
8
0
100
AcDbLine
10
-6.2000000000000011
20
-10
30
0
11
-5.8803320966593544
21
-10
31
0
0
CIRCLE
5
116
100
AcDbEntity
8
0
100
AcDbCircle
10
64.500000000000071
20
112.49999999999999
30
0
40
11.500000000000005
210
0
220
0
230
1
0
CIRCLE
5
117
100
AcDbEntity
8
0
100
AcDbCircle
10
49.000000000000064
20
127.99999999999999
30
0
40
1.7500000000000018
210
0
220
0
230
1
0
CIRCLE
5
118
100
AcDbEntity
8
0
100
AcDbCircle
10
80.000000000000071
20
127.99999999999999
30
0
40
1.7499999999999982
210
0
220
0
230
1
0
CIRCLE
5
119
100
AcDbEntity
8
0
100
AcDbCircle
10
80.000000000000071
20
97
30
0
40
1.7499999999999938
210
0
220
0
230
1
0
CIRCLE
5
120
100
AcDbEntity
8
0
100
AcDbCircle
10
49.000000000000064
20
97
30
0
40
1.7500000000000071
210
0
220
0
230
1
0
LINE
5
121
100
AcDbEntity
8
0
100
AcDbLine
10
12.500093963278029
20
80
30
0
11
12.500093963278045
21
106.91251416406516
31
0
0
LINE
5
122
100
AcDbEntity
8
0
100
AcDbLine
10
15.363240661985479
20
113.91717867821782
30
0
11
36.060144113947715
21
135.00466451415275
31
0
0
CIRCLE
5
123
100
AcDbEntity
8
0
100
AcDbCircle
10
30
20
95.5
30
0
40
5
210
0
220
0
230
1
0
CIRCLE
5
124
100
AcDbEntity
8
0
100
AcDbCircle
10
37.499968154258845
20
95.476107550226601
30
0
40
1.750000000000006
210
0
220
0
230
1
0
CIRCLE
5
125
100
AcDbEntity
8
0
100
AcDbCircle
10
22.500093963278029
20
95.537542513786207
30
0
40
1.7500000000000067
210
0
220
0
230
1
0
CIRCLE
5
126
100
AcDbEntity
8
0
100
AcDbCircle
10
30.006533878922497
20
102.99999715389454
30
0
40
1.7500000000000004
210
0
220
0
230
1
0
CIRCLE
5
127
100
AcDbEntity
8
0
100
AcDbCircle
10
29.958352621580314
20
88.000074535212761
30
0
40
1.7499999999999947
210
0
220
0
230
1
0
LINE
5
128
100
AcDbEntity
8
0
100
AcDbLine
10
12.500093963278029
20
80
30
0
11
70.000000000000057
21
80
31
0
0
ARC
5
129
100
AcDbEntity
8
0
100
AcDbCircle
10
-5.0000000000000044
20
75
30
0
40
5
210
0
220
-0
230
1
100
AcDbArc
50
89.999999999999943
51
180
0
ARC
5
130
100
AcDbEntity
8
0
100
AcDbCircle
10
-6.200000000000002
20
63.799999999999997
30
0
40
3.7999999999999998
210
0
220
0
230
1
100
AcDbArc
50
180
51
270
0
ARC
5
131
100
AcDbEntity
8
0
100
AcDbCircle
10
-6.2000000000000055
20
6.2000000000000055
30
0
40
3.7999999999999945
210
0
220
-0
230
1
100
AcDbArc
50
89.999999999999929
51
180
0
ARC
5
132
100
AcDbEntity
8
0
100
AcDbCircle
10
-6.2000000000000055
20
-6.2000000000000055
30
0
40
3.7999999999999945
210
0
220
0
230
1
100
AcDbArc
50
180
51
270.00000000000006
0
ARC
5
133
100
AcDbEntity
8
0
100
AcDbCircle
10
59.999999999999972
20
30.743703324541531
30
0
40
10.000000000000043
210
0
220
0
230
1
100
AcDbArc
50
300.25643716352937
51
360
0
ARC
5
134
100
AcDbEntity
8
0
100
AcDbCircle
10
80.000000000000028
20
90.000000000000028
30
0
40
10.000000000000053
210
0
220
0
230
1
100
AcDbArc
50
270
51
360
0
ARC
5
135
100
AcDbEntity
8
0
100
AcDbCircle
10
80.000000000000142
20
128
30
0
40
9.9999999999999822
210
0
220
0
230
1
100
AcDbArc
50
0
51
90
0
ARC
5
136
100
AcDbEntity
8
0
100
AcDbCircle
10
43.19699741524019
20
128.00000000000017
30
0
40
9.9999999999998757
210
0
220
-0
230
1
100
AcDbArc
50
89.999999999999417
51
135.53556054722947
0
ARC
5
137
100
AcDbEntity
8
0
100
AcDbCircle
10
22.500093963278104
20
106.91251416406514
30
0
40
10.000000000000064
210
0
220
0
230
1
100
AcDbArc
50
135.53556054722964
51
180
0
ENDSEC
0
SECTION
2
OBJECTS
0
DICTIONARY
5
C
100
AcDbDictionary
3
ACAD_GROUP
350
D
3
ACAD_MLINESTYLE
350
17
0
DICTIONARY
5
D
100
AcDbDictionary
0
DICTIONARY
5
1A
330
C
100
AcDbDictionary
0
DICTIONARY
5
17
100
AcDbDictionary
0
ENDSEC
0
EOF
