0
SECTION
2
HEADER
9
$INSUNITS
70
4
9
$ACADVER
1
AC1014
9
$HANDSEED
5
FFFF
0
ENDSEC
0
SECTION
2
TABLES
0
TABLE
2
VPORT
5
8
100
AcDbSymbolTable
0
ENDTAB
0
TABLE
2
LTYPE
5
5
100
AcDbSymbolTable
0
LTYPE
5
14
100
AcDbSymbolTableRecord
100
AcDbLinetypeTableRecord
2
BYBLOCK
70
0
0
LTYPE
5
15
100
AcDbSymbolTableRecord
100
AcDbLinetypeTableRecord
2
BYLAYER
70
0
0
ENDTAB
0
TABLE
2
LAYER
5
2
100
AcDbSymbolTable
70
2
0
LAYER
5
50
100
AcDbSymbolTableRecord
100
AcDbLayerTableRecord
2
0
70
0
6
CONTINUOUS
0
ENDTAB
0
TABLE
2
STYLE
5
3
100
AcDbSymbolTable
70
1
0
STYLE
5
11
100
AcDbSymbolTableRecord
100
AcDbTextStyleTableRecord
2
STANDARD
70
0
0
ENDTAB
0
TABLE
2
VIEW
5
6
100
AcDbSymbolTable
70
0
0
ENDTAB
0
TABLE
2
UCS
5
7
100
AcDbSymbolTable
70
0
0
ENDTAB
0
TABLE
2
APPID
5
9
100
AcDbSymbolTable
70
2
0
APPID
5
12
100
AcDbSymbolTableRecord
100
AcDbRegAppTableRecord
2
ACAD
70
0
0
ENDTAB
0
TABLE
2
DIMSTYLE
5
A
100
AcDbSymbolTable
70
1
0
ENDTAB
0
TABLE
2
BLOCK_RECORD
5
1
100
AcDbSymbolTable
70
1
0
BLOCK_RECORD
5
1F
100
AcDbSymbolTableRecord
100
AcDbBlockTableRecord
2
*MODEL_SPACE
0
BLOCK_RECORD
5
1B
100
AcDbSymbolTableRecord
100
AcDbBlockTableRecord
2
*PAPER_SPACE
0
ENDTAB
0
ENDSEC
0
SECTION
2
BLOCKS
0
BLOCK
5
20
100
AcDbEntity
100
AcDbBlockBegin
2
*MODEL_SPACE
0
ENDBLK
5
21
100
AcDbEntity
100
AcDbBlockEnd
0
BLOCK
5
1C
100
AcDbEntity
100
AcDbBlockBegin
2
*PAPER_SPACE
0
ENDBLK
5
1D
100
AcDbEntity
100
AcDbBlockEnd
0
ENDSEC
0
SECTION
2
ENTITIES
0
CIRCLE
5
100
100
AcDbEntity
8
0
100
AcDbCircle
10
257.27009615512117
20
50.078250412425831
30
0
40
2.0000000000000053
210
0
220
0
230
1
0
LWPOLYLINE
5
101
100
AcDbEntity
8
0
100
AcDbPolyline
90
62
70
1
43
0.0
10
146.63622782242339
20
103.8127049932733
42
0.18803670501125408
10
115.7256931086245
20
84.726113934309254
10
92.255156031107788
20
52.43863705555907
42
-0.24001278070461579
10
67.989047141954387
20
40.078250412425831
10
48.270096155121223
20
40.078250412425824
42
-0.41421356237309581
10
38.270096155121223
20
50.078250412425831
10
38.270096155121237
20
70.012499687391653
42
-0.2369928891880852
10
50.354293586554064
20
94.07541759699113
10
82.474451083545915
20
117.99015654715902
42
0.22510658995280095
10
102.56385896053372
20
155.83902226220209
42
0.011784031305154131
10
102.34501962862964
20
158.18531780555102
10
112.34501853521344
20
158.18064144768957
10
112.34080981313829
20
149.18064243176417
10
114.34080959445502
20
149.17970716019192
10
114.34595358810243
20
160.17970595743409
10
102.06976535037718
20
160.18544674299898
42
0.20117440389583882
10
81.725830628763063
20
193.07135474054945
10
50.845200553384871
20
215.10555774337391
42
-0.24234612039671405
10
38.27009615512123
20
239.52630738929162
10
38.270096155121209
20
259.07825041242586
42
-0.41421356237309426
10
48.27009615512118
20
269.07825041242586
10
69.246246946259063
20
269.07825041242586
42
-0.23906438053683404
10
93.448913441508083
20
256.80481055588729
10
116.14189199249927
20
225.82132660815321
42
0.18918616270339428
10
147.00063231355836
20
206.27233680477309
10
149.00011077002344
20
205.92819672327863
42
0.024248097114579811
10
153.82185293006535
20
205.43628337285784
42
0.010862667110054616
10
155.98666333930089
20
205.61623804897602
10
155.98155623942267
20
195.61623935309956
10
146.98155744293618
20
195.62083574297463
10
146.98053602294536
20
193.62083597399703
10
157.98053458841153
20
193.61521816815605
10
157.98679179860534
20
205.86719977640584
42
0.20315444028135862
10
191.33736572712198
20
226.12391447548919
10
213.29095740967978
20
256.60948555528466
42
-0.24119207002084903
10
237.63548029195846
20
269.07825041242586
10
257.27009615512117
20
269.07825041242592
42
-0.41421356237309398
10
267.27009615512134
20
259.0782504124258
10
267.27009615512117
20
239.29158220660804
42
-0.23906438053683451
10
254.99665629858271
20
215.08891571135905
10
220.92552649872744
20
190.13447808063893
42
0.21673906387827507
10
200.64984029854759
20
154.03607230156791
42
0.013826609700132012
10
201.00723623156534
20
151.29447594493826
10
191.00723623156534
20
151.29447594493831
10
191.00723623156534
20
160.29447607904874
10
189.00723620176305
20
160.29447607904874
10
189.00723620176305
20
149.29447607904874
10
201.32220524747294
20
149.51656778489291
42
0.18956383923583942
10
221.0121737528797
20
118.66704220442215
10
254.8969360166424
20
94.062646557162125
42
-0.24015193744669872
10
267.27009615512117
20
69.787257446042034
10
267.27009615512134
20
50.078250412425859
42
-0.41421356237309709
10
257.27009615512134
20
40.078250412425831
10
237.56791129057859
20
40.078250412425845
42
-0.24024739110893922
10
213.28616069813012
20
52.460174803377839
10
190.42721786635244
20
83.965042926614217
42
0.22633978104915034
10
152.59432722505846
20
104.53201364284931
42
0.019900037463250409
10
148.63622782242348
20
104.13030454295368
10
148.63622782242339
20
114.13030454295365
10
157.62734821927782
20
114.09038535962743
10
157.63622782242339
20
116.09036567749487
10
146.63622782242339
20
116.09036567749487
0
CIRCLE
5
102
100
AcDbEntity
8
0
100
AcDbCircle
10
122.17458443328452
20
124.78393091020115
30
0
40
3.0000000000000071
210
0
220
0
230
1
0
CIRCLE
5
103
100
AcDbEntity
8
0
100
AcDbCircle
10
122.17458443328452
20
184.69176915937939
30
0
40
3.0000000000000004
210
0
220
0
230
1
0
CIRCLE
5
104
100
AcDbEntity
8
0
100
AcDbCircle
10
48.270096155121223
20
259.07825041242586
30
0
40
2.000000000000008
210
0
220
0
230
1
0
CIRCLE
5
105
100
AcDbEntity
8
0
100
AcDbCircle
10
139.63622782242339
20
116.09036567749487
30
0
40
1.7500000000000047
210
0
220
0
230
1
0
CIRCLE
5
106
100
AcDbEntity
8
0
100
AcDbCircle
10
164.63622782242339
20
116.09036567749487
30
0
40
1.7500000000000151
210
0
220
0
230
1
0
CIRCLE
5
107
100
AcDbEntity
8
0
100
AcDbCircle
10
139.63622782242339
20
136.09036567749487
30
0
40
1.7500000000000004
210
0
220
0
230
1
0
CIRCLE
5
108
100
AcDbEntity
8
0
100
AcDbCircle
10
164.63622782242339
20
136.09036567749487
30
0
40
1.7500000000000004
210
0
220
0
230
1
0
CIRCLE
5
109
100
AcDbEntity
8
0
100
AcDbCircle
10
48.270096155121223
20
50.078250412425831
30
0
40
1.999999999999996
210
0
220
0
230
1
0
CIRCLE
5
110
100
AcDbEntity
8
0
100
AcDbCircle
10
182.17458443328445
20
124.78393091020115
30
0
40
2.9999999999999947
210
0
220
0
230
1
0
CIRCLE
5
111
100
AcDbEntity
8
0
100
AcDbCircle
10
182.17458443328445
20
184.69176915937939
30
0
40
3.0000000000000004
210
0
220
0
230
1
0
CIRCLE
5
112
100
AcDbEntity
8
0
100
AcDbCircle
10
257.27009615512117
20
259.07825041242586
30
0
40
1.9999999999999929
210
0
220
0
230
1
0
CIRCLE
5
113
100
AcDbEntity
8
0
100
AcDbCircle
10
164.98053458841153
20
193.61241165924656
30
0
40
1.7500000000000004
210
0
220
0
230
1
0
CIRCLE
5
114
100
AcDbEntity
8
0
100
AcDbCircle
10
139.98053602294536
20
173.61521816815605
30
0
40
1.749999999999998
210
0
220
0
230
1
0
CIRCLE
5
115
100
AcDbEntity
8
0
100
AcDbCircle
10
139.98053602294536
20
193.61521816815605
30
0
40
1.7500000000000075
210
0
220
0
230
1
0
CIRCLE
5
116
100
AcDbEntity
8
0
100
AcDbCircle
10
164.98053458841153
20
173.61521816815605
30
0
40
1.7500000000000004
210
0
220
0
230
1
0
ENDSEC
0
SECTION
2
OBJECTS
0
DICTIONARY
5
C
100
AcDbDictionary
3
ACAD_GROUP
350
D
3
ACAD_MLINESTYLE
350
17
0
DICTIONARY
5
D
100
AcDbDictionary
0
DICTIONARY
5
1A
330
C
100
AcDbDictionary
0
DICTIONARY
5
17
100
AcDbDictionary
0
ENDSEC
0
EOF
